HIERARCHY
ROOT Hips
{
  OFFSET 196.326 95.9168 97.7182
  CHANNELS 6 Xposition Yposition Zposition Zrotation Xrotation Yrotation
  JOINT LeftUpLeg
  {
    OFFSET 8.64259 1.95398 -2.38835
    CHANNELS 3 Zrotation Xrotation Yrotation
    JOINT LeftLeg
    {
      OFFSET 43.7702 0 0
      CHANNELS 3 Zrotation Xrotation Yrotation
      JOINT LeftFoot
      {
        OFFSET 40.6238 0 0
        CHANNELS 3 Zrotation Xrotation Yrotation
        JOINT LeftToeBase
        {
          OFFSET 12.7242 0 0
          CHANNELS 3 Zrotation Xrotation Yrotation
          End Site
          {
            OFFSET 0 0 0
          }
        }
      }
    }
  }
  JOINT RightUpLeg
  {
    OFFSET -8.2249 1.95398 -2.59336
    CHANNELS 3 Zrotation Xrotation Yrotation
    JOINT RightLeg
    {
      OFFSET 43.5653 0 0
      CHANNELS 3 Zrotation Xrotation Yrotation
      JOINT RightFoot
      {
        OFFSET 40.6238 0 0
        CHANNELS 3 Zrotation Xrotation Yrotation
        JOINT RightToeBase
        {
          OFFSET 12.7242 0 0
          CHANNELS 3 Zrotation Xrotation Yrotation
          End Site
          {
            OFFSET 0 0 0
          }
        }
      }
    }
  }
  JOINT Spine
  {
    OFFSET 0.165834 0.87714 6.61349
    CHANNELS 3 Zrotation Xrotation Yrotation
    JOINT Spine1
    {
      OFFSET 7.38963 1.71661e-005 0
      CHANNELS 3 Zrotation Xrotation Yrotation
      JOINT Spine2
      {
        OFFSET 11.9445 1.14441e-005 0
        CHANNELS 3 Zrotation Xrotation Yrotation
        JOINT Spine3
        {
          OFFSET 14.7254 4.19617e-005 0
          CHANNELS 3 Zrotation Xrotation Yrotation
          JOINT Spine4
          {
            OFFSET 10.9679 0 0
            CHANNELS 3 Zrotation Xrotation Yrotation
            JOINT RightShoulder
            {
              OFFSET 2.46616 -1.6653 3.69651
              CHANNELS 3 Zrotation Xrotation Yrotation
              JOINT RightArm
              {
                OFFSET 13.0012 0 0
                CHANNELS 3 Zrotation Xrotation Yrotation
                JOINT RightForeArm
                {
                  OFFSET 28.7848 1.52588e-005 0
                  CHANNELS 3 Zrotation Xrotation Yrotation
                  JOINT RightHand
                  {
                    OFFSET 26.5688 1.52588e-005 0
                    CHANNELS 3 Zrotation Xrotation Yrotation
                    End Site
                    {
                      OFFSET 0 0 0
                    }
                  }
                }
              }
            }
            JOINT LeftShoulder
            {
              OFFSET 2.38034 -1.29275 -3.75231
              CHANNELS 3 Zrotation Xrotation Yrotation
              JOINT LeftArm
              {
                OFFSET 16.3182 6.10351e-005 0
                CHANNELS 3 Zrotation Xrotation Yrotation
                JOINT LeftForeArm
                {
                  OFFSET 27.0901 0 0
                  CHANNELS 3 Zrotation Xrotation Yrotation
                  JOINT LeftHand
                  {
                    OFFSET 24.5451 1.52588e-005 0
                    CHANNELS 3 Zrotation Xrotation Yrotation
                    End Site
                    {
                      OFFSET 0 0 0
                    }
                  }
                }
              }
            }
            JOINT Neck
            {
              OFFSET 5.0226 -0.0266342 0
              CHANNELS 3 Zrotation Xrotation Yrotation
              JOINT Head
              {
                OFFSET 6.69363 2.86102e-005 0
                CHANNELS 3 Zrotation Xrotation Yrotation
                End Site
                {
                  OFFSET 0 0 0
                }
              }
            }
          }
        }
      }
    }
  }
}
MOTION
Frames:	6
Frame Time:	0.0416667
-56.7512 19.2022 39.4301 -4.55674 -7.51262 -5.77632 -167.235 8.9103 86.1274 -21.7186 15.4685 -5.74601 56.4733 6.28397 19.5943 64.8554 60.0246 30.1912 179.161 16.6511 84.489 -39.8517 -4.85876 -6.27435 76.6641 -5.26423 -2.4377 76.4564 17.1278 36.3722 0.408514 7.40896 -91.5549 12.0467 0.0780958 -3.11033 0.372024 -0.0588032 -3.11078 -22.1356 1.00886 -2.94336 -2.1229 1.00887 -2.94336 82.8016 -48.1096 -112.41 10.5701 -13.1368 24.7378 -69.4054 28.2775 -94.3945 -61.4205 -12.2141 20.7389 -89.5427 -28.3891 73.6352 16.0692 -16.3266 30.9475 33.7423 -15.7365 -130.866 58.3024 17.7486 25.6685 29.6707 2.24725 1.58767 28.4998 3.94733 7.35797 
-56.6822 17.358 39.9059 -3.41907 -6.39059 -5.54735 -167.828 7.70331 85.6837 -19.355 15.0165 -5.14202 56.3667 6.60782 20.0231 65.7016 60.2321 29.0742 178.987 15.6708 84.248 -38.691 -6.04572 -6.51417 77.2792 -5.39232 -2.46391 75.7535 15.777 33.7729 0.268851 7.30173 -91.5383 12.2576 -0.194677 -3.04893 0.583201 -0.328611 -3.03743 -21.9244 0.730233 -2.96666 -1.91171 0.730239 -2.96667 82.7617 -48.6612 -112.269 12.1599 -12.831 27.6603 -70.2591 29.9845 -94.3444 -61.443 -12.4652 21.2453 -88.7923 -28.51 75.1389 15.4461 -18.6281 34.1382 29.0842 -13.587 -135.132 58.8985 17.145 24.3312 31.3017 2.51118 0.742735 27.0739 4.35773 7.18127 
-56.6519 16.0951 40.245 -3.78063 -5.7712 -5.00319 -167.77 7.13458 86.2344 -18.6475 14.7149 -5.0073 56.4669 6.0693 18.6737 61.8068 58.0975 33.1529 179.126 14.8752 84.6299 -37.8405 -6.95869 -6.63892 77.4175 -5.49684 -2.50159 74.8249 14.3174 31.0467 0.291133 7.28498 -91.5821 12.2908 -0.171599 -3.139 0.616112 -0.309516 -3.12842 -21.8898 0.779283 -3.04564 -1.87722 0.779276 -3.04567 82.925 -49.3661 -111.768 12.5333 -12.9229 29.5689 -72.3725 30.697 -93.3727 -60.8659 -12.6022 21.8802 -89.1259 -29.7145 74.8862 19.0392 -22.4901 39.6028 29.43 -14.5017 -139.14 59.3985 17.09 23.9712 32.0809 2.67524 0.0669285 26.623 4.70936 7.03842 
-56.7923 14.9144 40.6772 -4.16443 -4.72902 -5.05986 -168.24 6.40518 85.9859 -17.0252 13.7096 -4.50528 56.5574 6.42793 18.8272 65.053 58.7732 28.5242 179.196 14.5195 84.7549 -36.567 -6.47892 -6.74599 77.261 -5.35203 -2.44175 74.2171 14.2778 31.5525 0.282725 7.1881 -91.5749 12.4847 -0.187659 -3.12411 0.810034 -0.324904 -3.11284 -21.6962 0.759486 -3.03626 -1.68354 0.75949 -3.03627 83.1643 -49.002 -111.537 14.2268 -13.1466 31.1633 -71.322 31.1902 -93.9725 -63.1152 -12.2101 20.1041 -89.7337 -31.7044 74.3826 24.8891 -26.7869 45.7371 26.5102 -11.5547 -143.329 54.637 14.6081 22.4057 32.5122 3.04032 0.87622 26.6258 4.53511 6.45773 
-56.9088 13.8227 40.9774 -4.88414 -4.27909 -4.96385 -168.661 5.45837 86.1914 -15.8803 14.3174 -4.18942 56.1384 6.31189 19.4878 69.3786 59.068 22.0475 179.011 13.81 84.8386 -35.4498 -6.61 -6.5562 77.1611 -5.34141 -2.44361 75.4846 14.8591 31.7761 0.311437 7.15232 -91.5154 12.5579 -0.103365 -3.01547 0.883474 -0.235922 -3.00802 -21.625 0.807287 -2.90732 -1.61233 0.807294 -2.90732 82.9117 -49.9979 -111.563 15.1215 -13.5304 32.4363 -71.8093 31.6079 -93.65 -61.5295 -12.1551 20.6998 -89.4987 -32.0979 74.9423 28.6134 -30.3633 50.6575 23.3561 -7.4269 -145.921 58.3498 14.2828 19.9094 32.4361 3.07197 -0.198968 27.2351 5.11557 6.65851 
-56.8195 12.7864 41.2254 -4.92329 -3.56301 -5.10994 -169.146 4.69012 86.1164 -14.4159 15.4452 -4.00483 55.8906 5.99984 19.188 71.805 59.0648 18.3556 178.856 13.3863 84.6691 -34.5765 -6.37197 -6.53496 76.8421 -5.16106 -2.3742 76.1913 14.6532 30.5844 0.324883 7.08383 -91.544 12.6948 -0.0921451 -3.07469 1.02025 -0.227314 -3.06767 -21.4872 0.835759 -2.96045 -1.47459 0.835767 -2.96045 83.8746 -48.6354 -110.586 17.064 -12.7659 33.4885 -72.1553 31.0644 -93.6404 -63.831 -12.6601 20.6511 -89.8726 -33.2984 74.6284 31.043 -32.4004 53.9789 22.1451 -5.35553 -147.31 58.4287 13.8086 19.106 32.7808 3.72988 0.487572 27.1295 5.53639 6.95292 
